<?xml version="1.0" encoding="UTF-8"?>
<svg xmlns="http://www.w3.org/2000/svg" xmlns:xlink="http://www.w3.org/1999/xlink" width="692px" height="150px" viewBox="0 0 691 150" version="1.1">
<g id="surface1">
<path style=" stroke:none;fill-rule:nonzero;fill:rgb(100%,100%,100%);fill-opacity:1;" d="M 455.292969 0.84375 C 455.292969 1.304688 453.988281 3.457031 452.453125 5.609375 C 450.839844 7.761719 449.074219 10.375 448.613281 11.371094 C 447.308594 13.910156 447.382812 18.597656 448.765625 20.441406 C 449.765625 21.824219 450.378906 24.589844 449.609375 24.589844 C 449.378906 24.589844 446.691406 22.054688 443.621094 18.902344 C 437.402344 12.601562 435.40625 11.371094 428.804688 9.757812 C 408.917969 4.839844 390.722656 14.214844 386.960938 31.199219 C 385.808594 36.195312 387.113281 41.648438 390.800781 47.875 C 392.488281 50.640625 393.871094 53.714844 393.871094 54.558594 C 393.871094 55.480469 392.027344 58.324219 389.570312 60.9375 C 384.578125 66.394531 383.121094 69.3125 383.121094 73.925781 C 383.121094 81.070312 390.570312 90.367188 399.78125 94.75 C 405.003906 97.207031 405.003906 97.207031 417.289062 97.207031 C 430.417969 97.207031 433.792969 96.515625 439.859375 92.445312 C 443.160156 90.214844 444.464844 90.214844 448.074219 92.675781 C 453.140625 96.210938 455.597656 96.824219 463.355469 96.824219 C 471.722656 96.824219 474.71875 95.902344 479.171875 91.828125 C 481.78125 89.523438 482.394531 89.292969 484.238281 89.90625 C 486.769531 90.828125 493.835938 96.054688 494.21875 97.363281 C 494.371094 97.824219 492.761719 99.972656 490.609375 102.125 C 484.621094 108.121094 484.160156 110.65625 488.078125 115.882812 C 490.839844 119.648438 490.226562 120.953125 485.234375 121.644531 C 479.246094 122.414062 479.324219 122.414062 472.796875 121.492188 C 469.265625 121.03125 465.351562 119.878906 463.046875 118.722656 C 459.976562 117.109375 458.902344 116.878906 457.671875 117.496094 C 456.828125 117.957031 454.601562 118.261719 452.835938 118.261719 C 450.992188 118.1875 448.613281 118.570312 447.613281 119.109375 C 445.3125 120.339844 433.488281 122.414062 430.339844 122.183594 C 427.574219 121.875 407.460938 121.875 404.234375 122.105469 C 399.707031 122.414062 388.035156 120.875 385.65625 119.648438 C 382.199219 117.800781 381.125 117.957031 375.214844 121.03125 C 372.296875 122.488281 369.300781 123.71875 368.535156 123.71875 C 366.230469 123.71875 360.085938 120.800781 357.324219 118.417969 C 354.253906 115.726562 350.875 114.804688 348.417969 116.113281 C 347.417969 116.648438 344.5 119.109375 341.890625 121.644531 L 337.132812 126.179688 L 334.675781 124.949219 C 333.292969 124.257812 330.375 123.71875 328.148438 123.71875 C 324.769531 123.71875 323.617188 123.335938 321.546875 121.492188 C 313.332031 114.421875 307.109375 113.039062 301.121094 117.109375 L 297.820312 119.339844 L 294.519531 116.957031 C 292.601562 115.574219 290.605469 114.496094 289.914062 114.496094 C 289.296875 114.496094 286.457031 116.113281 283.695312 118.03125 L 278.625 121.644531 L 255.441406 121.796875 C 240.3125 121.875 231.332031 122.257812 229.640625 122.796875 C 227.644531 123.488281 226.265625 123.488281 224.039062 122.796875 C 221.8125 122.183594 220.351562 122.183594 217.972656 122.875 C 216.28125 123.410156 213.824219 123.566406 212.519531 123.335938 C 211.292969 123.027344 209.527344 122.71875 208.605469 122.566406 C 198.699219 121.183594 196.242188 120.492188 191.5625 118.03125 C 183.960938 114.035156 178.203125 114.191406 173.824219 118.648438 C 170.140625 122.335938 169.601562 124.101562 169.523438 131.941406 C 169.449219 140.472656 169.984375 142.316406 173.976562 146.695312 C 176.28125 149.308594 177.28125 149.847656 179.582031 149.847656 C 181.425781 149.847656 182.808594 149.308594 183.730469 148.308594 C 184.421875 147.464844 185.878906 146.773438 186.953125 146.773438 C 188.027344 146.773438 189.257812 147.464844 189.792969 148.308594 C 190.792969 149.847656 191.636719 149.847656 242.234375 149.847656 C 292.832031 149.847656 293.675781 149.847656 294.671875 148.308594 C 295.902344 146.3125 298.28125 146.3125 299.972656 148.308594 C 301.121094 149.691406 302.273438 149.847656 309.566406 149.847656 C 314.558594 149.847656 317.859375 149.539062 317.859375 149.078125 C 317.859375 148.617188 318.472656 148.308594 319.320312 148.308594 C 320.085938 148.308594 321.316406 147.464844 322.007812 146.386719 C 323.3125 144.390625 323.695312 141.394531 322.542969 141.394531 C 322.160156 141.394531 321.621094 140.472656 321.390625 139.394531 C 321.085938 138.320312 320.011719 136.089844 319.011719 134.402344 C 316.324219 130.175781 316.476562 128.097656 319.472656 128.867188 C 320.855469 129.253906 322.160156 131.402344 324.539062 137.550781 L 325.308594 139.472656 L 326.535156 137.011719 C 327.304688 135.628906 327.839844 133.863281 327.839844 133.015625 C 327.839844 130.789062 331.140625 127.175781 332.679688 127.792969 C 334.058594 128.328125 334.519531 132.554688 333.292969 133.324219 C 332.601562 133.710938 330.453125 138.011719 327.378906 145.003906 C 326.613281 146.847656 325.769531 148.308594 325.382812 148.308594 C 325.078125 148.308594 324.769531 148.617188 324.769531 149.078125 C 324.769531 149.460938 326.613281 149.847656 328.914062 149.847656 C 332.449219 149.847656 333.214844 149.617188 334.289062 147.925781 C 335.902344 145.464844 337.285156 145.464844 339.203125 147.925781 C 341.046875 150.230469 345.039062 150.539062 348.648438 148.617188 C 350.796875 147.539062 351.179688 147.539062 352.792969 148.617188 C 354.484375 149.691406 362.773438 149.847656 428.191406 149.847656 L 501.742188 149.847656 L 504.121094 146.925781 C 505.351562 145.390625 506.734375 143.621094 507.039062 143.085938 C 507.347656 142.546875 505.890625 138.628906 503.277344 133.554688 C 500.898438 128.867188 499.132812 124.566406 499.363281 124.101562 C 499.515625 123.566406 502.433594 123.027344 506.578125 122.71875 C 512.109375 122.414062 514.335938 121.875 517.941406 120.03125 C 526.386719 115.726562 533.527344 107.121094 536.445312 97.515625 C 538.828125 89.832031 539.59375 89.140625 542.972656 92.136719 C 547.503906 96.054688 551.035156 97.054688 559.941406 96.671875 C 565.46875 96.441406 568.617188 95.902344 570.6875 94.902344 C 572.226562 94.132812 573.53125 93.210938 573.53125 92.828125 C 573.53125 91.597656 576.753906 92.214844 580.671875 94.289062 C 584.046875 96.054688 585.890625 96.441406 592.492188 96.671875 C 601.09375 97.054688 605.164062 96.054688 608.847656 92.597656 C 612.074219 89.675781 613.914062 89.523438 617.140625 92.058594 C 621.363281 95.363281 624.585938 96.824219 629.425781 97.59375 C 634.722656 98.4375 662.824219 97.285156 665.894531 96.132812 C 668.964844 94.980469 674.875 88.601562 674.875 86.449219 C 674.875 85.449219 673.878906 82.453125 672.574219 79.765625 C 670.269531 75 670.269531 74.769531 670.269531 62.167969 C 670.269531 43.109375 668.8125 37.730469 661.671875 30.738281 C 655.222656 24.359375 652.457031 23.4375 640.328125 23.4375 C 627.429688 23.515625 623.511719 24.742188 617.214844 31.121094 C 609.386719 39.035156 608.386719 44.183594 613.148438 51.179688 C 615.757812 54.945312 615.910156 55.480469 615.066406 57.480469 C 613.914062 60.246094 609.15625 64.933594 608.617188 63.933594 C 608.308594 63.550781 607.3125 59.171875 606.238281 54.097656 C 604.855469 47.183594 603.703125 43.648438 601.398438 39.652344 C 595.949219 29.816406 584.894531 20.746094 578.367188 20.746094 C 576.910156 20.746094 573.835938 21.59375 571.378906 22.59375 C 567.386719 24.28125 566.234375 24.4375 559.171875 24.050781 C 551.726562 23.589844 551.265625 23.667969 546.425781 25.972656 L 541.4375 28.277344 L 537.675781 26.128906 C 530.382812 21.976562 505.964844 21.054688 496.675781 24.589844 C 494.449219 25.359375 490.839844 27.28125 488.613281 28.816406 C 486.308594 30.277344 483.855469 31.507812 483.085938 31.507812 C 481.550781 31.507812 477.558594 27.585938 476.023438 24.742188 C 475.253906 23.207031 475.40625 22.285156 476.789062 19.058594 C 478.863281 14.214844 478.402344 12.140625 474.027344 6.53125 C 472.183594 4.074219 470.648438 1.613281 470.648438 1.074219 C 470.648438 0.230469 468.957031 0 462.96875 0 C 457.824219 0 455.292969 0.308594 455.292969 0.84375 Z M 467.578125 9.988281 C 469.726562 12.066406 471.414062 14.214844 471.414062 14.753906 C 471.414062 15.292969 469.574219 17.519531 467.347656 19.75 L 463.277344 23.746094 L 458.902344 19.671875 C 456.519531 17.367188 454.523438 15.136719 454.523438 14.675781 C 454.523438 13.679688 462.203125 6.148438 463.199219 6.148438 C 463.507812 6.148438 465.503906 7.839844 467.578125 9.988281 Z M 426.5 17.675781 C 426.730469 18.058594 427.5 18.441406 428.191406 18.441406 C 430.03125 18.441406 436.097656 21.515625 437.941406 23.359375 C 439.167969 24.589844 439.554688 25.972656 439.554688 29.355469 C 439.554688 34.195312 438.171875 36.269531 433.332031 38.882812 L 430.722656 40.34375 L 428.804688 38.34375 L 426.808594 36.425781 L 428.421875 34.425781 C 430.648438 31.582031 430.339844 29.125 427.5 26.359375 C 425.578125 24.589844 423.96875 23.820312 421.050781 23.4375 C 414.601562 22.59375 410.453125 23.589844 407.382812 26.742188 C 405.003906 29.125 404.617188 29.96875 404.617188 33.121094 C 404.617188 36.347656 405.003906 37.117188 407.921875 40.113281 C 409.761719 42.035156 413.910156 44.878906 417.671875 46.796875 C 434.5625 55.40625 437.785156 57.554688 441.320312 62.933594 C 444.3125 67.546875 444.542969 71.773438 442.238281 77.074219 C 440.242188 81.53125 437.171875 84.605469 432.488281 86.910156 C 429.109375 88.601562 427.804688 88.753906 417.671875 88.753906 C 408.304688 88.753906 406.230469 88.523438 404.617188 87.371094 C 403.621094 86.679688 402.316406 86.066406 401.703125 86.066406 C 400.011719 86.066406 393.5625 80.6875 392.179688 78.152344 C 389.722656 73.617188 390.339844 71.15625 394.867188 66.46875 C 398.09375 63.089844 399.476562 62.242188 401.394531 62.242188 C 404.925781 62.242188 405.847656 64.472656 403.851562 68.160156 C 401.933594 71.695312 401.933594 73.539062 403.699219 76.152344 C 405.769531 79.226562 407.152344 80.378906 410.992188 82.148438 C 417.441406 85.144531 426.269531 83.683594 430.417969 79.074219 C 432.71875 76.535156 433.410156 71.617188 432.027344 68.238281 C 430.648438 65.011719 428.191406 63.164062 418.515625 58.171875 C 405.386719 51.484375 400.394531 47.875 397.171875 42.800781 C 395.558594 40.191406 395.175781 38.652344 395.175781 34.578125 C 395.175781 26.28125 398.246094 22.59375 409.226562 17.828125 C 411.683594 16.753906 425.886719 16.675781 426.5 17.675781 Z M 583.664062 31.429688 C 594.71875 39.804688 597.867188 47.257812 598.558594 67.316406 C 599.097656 81.761719 599.558594 82.992188 603.855469 82.992188 C 606.851562 82.992188 608.15625 84.375 607.542969 86.679688 C 607.160156 88.371094 606.851562 88.371094 593.875 88.371094 C 581.132812 88.371094 580.515625 88.292969 580.054688 86.835938 C 579.363281 84.757812 580.902344 82.992188 583.28125 82.992188 C 584.277344 82.992188 585.96875 82.453125 586.964844 81.761719 C 588.886719 80.53125 588.886719 80.378906 588.886719 68.621094 C 588.886719 56.402344 587.503906 47.105469 585.277344 44.492188 C 584.738281 43.878906 584.277344 42.957031 584.277344 42.570312 C 584.203125 41.417969 578.519531 35.347656 577.445312 35.347656 C 576.910156 35.347656 574.296875 37.5 571.6875 40.113281 C 564.46875 47.414062 563.550781 50.5625 563.550781 67.238281 C 563.550781 80.53125 563.550781 80.53125 565.46875 81.761719 C 566.464844 82.453125 568.15625 82.992188 569.078125 82.992188 C 571.6875 82.992188 572.914062 84.066406 572.609375 86.140625 L 572.378906 87.988281 L 558.867188 88.21875 C 545.429688 88.371094 545.277344 88.371094 544.890625 86.679688 C 544.277344 84.375 545.582031 82.992188 548.578125 82.992188 C 550.035156 82.992188 551.570312 82.378906 552.417969 81.453125 C 553.644531 80.148438 553.796875 77.921875 553.875 59.9375 C 553.953125 48.949219 553.796875 39.496094 553.492188 39.035156 C 553.183594 38.5 551.265625 37.960938 549.191406 37.730469 C 545.660156 37.269531 545.507812 37.117188 545.277344 34.734375 L 545.046875 32.199219 L 563.164062 32.660156 L 563.394531 36.269531 C 563.550781 38.34375 563.933594 39.960938 564.316406 39.960938 C 564.625 39.960938 565.699219 38.730469 566.621094 37.269531 C 567.542969 35.808594 569.691406 33.503906 571.457031 32.121094 C 573.222656 30.738281 574.835938 29.429688 575.066406 29.125 C 575.449219 28.664062 577.292969 27.816406 578.214844 27.742188 C 578.445312 27.664062 580.902344 29.355469 583.664062 31.429688 Z M 520.707031 31.8125 C 523.472656 32.503906 527.386719 32.734375 531.53125 32.503906 C 538.519531 32.042969 539.441406 32.503906 538.136719 35.886719 C 537.597656 37.347656 536.90625 37.652344 534.527344 37.652344 C 532.835938 37.652344 531.148438 38.113281 530.6875 38.652344 C 530.074219 39.34375 529.765625 48.949219 529.613281 67.316406 C 529.382812 92.136719 529.230469 95.054688 528.078125 96.824219 C 527.308594 97.824219 526.695312 99.28125 526.695312 99.972656 C 526.695312 101.820312 518.480469 110.503906 515.101562 112.269531 C 509.34375 115.191406 496.292969 115.113281 492.761719 112.191406 C 491.070312 110.808594 491.070312 110.65625 492.222656 108.582031 C 493.144531 106.8125 493.835938 106.429688 496.0625 106.582031 C 506.117188 107.351562 508.730469 107.121094 511.492188 105.429688 C 516.101562 102.585938 518.789062 97.4375 519.785156 89.523438 C 520.09375 86.988281 520.167969 84.683594 520.015625 84.296875 C 519.554688 83.53125 517.480469 83.605469 517.480469 84.453125 C 517.480469 84.835938 516.175781 85.988281 514.640625 86.988281 C 510.417969 89.523438 500.976562 89.523438 495.753906 86.988281 C 491.992188 85.066406 485.234375 78.152344 485.234375 76.074219 C 485.234375 75.382812 484.621094 74 483.929688 73.003906 C 482.855469 71.464844 482.546875 69.3125 482.546875 61.089844 C 482.546875 51.179688 482.546875 51.023438 485.234375 45.875 C 489.152344 38.269531 492.070312 35.578125 500.207031 32.199219 C 504.046875 30.585938 514.640625 30.429688 520.707031 31.8125 Z M 648.386719 32.351562 C 653.148438 33.582031 656.375 35.503906 658.601562 38.421875 L 660.671875 41.113281 L 660.828125 60.628906 C 660.902344 81.53125 661.210938 82.992188 664.742188 82.992188 C 668.8125 82.992188 671.34375 86.757812 668.195312 88.140625 C 667.429688 88.449219 657.832031 88.753906 646.851562 88.753906 L 626.890625 88.753906 L 622.898438 86.066406 C 620.671875 84.605469 618.828125 83.070312 618.828125 82.683594 C 618.828125 82.300781 618.292969 81.378906 617.601562 80.609375 C 615.910156 78.765625 615.910156 70.390625 617.601562 68.546875 C 618.292969 67.777344 618.828125 66.855469 618.828125 66.546875 C 618.828125 65.316406 624.816406 60.628906 629.117188 58.554688 C 634.03125 56.171875 641.476562 54.558594 647.46875 54.558594 L 651.074219 54.558594 L 651.074219 42.339844 L 648.234375 40.035156 C 645.546875 37.808594 644.933594 37.652344 639.558594 37.652344 C 633.417969 37.730469 631.882812 38.34375 629.5 42.035156 C 628.195312 43.953125 628.195312 44.339844 629.269531 45.953125 C 629.886719 46.953125 630.34375 48.488281 630.191406 49.410156 C 630.039062 50.792969 629.347656 51.179688 626.890625 51.332031 C 624.433594 51.484375 623.28125 51.101562 620.980469 49.179688 C 618.523438 47.183594 618.0625 46.261719 618.0625 43.800781 C 618.0625 36.808594 626.96875 31.738281 639.558594 31.582031 C 642.707031 31.507812 646.699219 31.890625 648.386719 32.351562 Z M 476.40625 34.964844 C 476.40625 37.117188 476.175781 37.269531 472.949219 37.652344 C 470.109375 37.960938 469.496094 38.34375 469.035156 39.960938 C 468.726562 41.035156 468.496094 50.410156 468.421875 60.785156 C 468.34375 74.769531 468.574219 79.917969 469.34375 80.917969 C 469.804688 81.609375 471.644531 82.453125 473.335938 82.839844 C 475.714844 83.300781 476.484375 83.835938 476.636719 85.21875 C 476.789062 86.21875 476.558594 87.371094 476.175781 87.757812 C 475.636719 88.292969 460.898438 88.679688 450.609375 88.371094 C 450.148438 88.371094 449.917969 87.296875 450.070312 85.910156 C 450.300781 83.683594 450.609375 83.375 453.371094 82.839844 C 455.0625 82.453125 456.90625 81.609375 457.441406 80.917969 C 458.132812 79.996094 458.363281 74.460938 458.363281 59.9375 C 458.363281 45.339844 458.132812 39.960938 457.441406 38.960938 C 456.90625 38.269531 455.0625 37.652344 453.371094 37.5 C 451.144531 37.347656 450.226562 36.886719 450.070312 35.886719 C 449.457031 32.582031 449.917969 32.429688 463.507812 32.582031 L 476.40625 32.660156 Z M 447.230469 43.878906 C 448.996094 47.183594 449.074219 53.023438 447.460938 54.097656 C 446.308594 54.789062 445.464844 54.328125 442.164062 51.023438 L 438.246094 47.105469 L 439.476562 44.722656 C 441.703125 40.34375 445.234375 39.960938 447.230469 43.878906 Z M 543.433594 62.011719 C 543.203125 76.535156 542.742188 79.378906 540.59375 78.074219 C 539.441406 77.304688 539.441406 48.105469 540.59375 45.953125 C 541.4375 44.339844 541.515625 44.339844 542.589844 45.800781 C 543.433594 46.953125 543.664062 50.179688 543.433594 62.011719 Z M 577.984375 54.175781 C 578.980469 56.25 579.136719 70.082031 578.214844 74.15625 C 577.90625 75.769531 577.292969 76.460938 576.21875 76.460938 C 574.222656 76.460938 573.761719 74.078125 573.605469 64.011719 C 573.53125 56.25 574.375 52.253906 576.21875 52.253906 C 576.679688 52.253906 577.523438 53.097656 577.984375 54.175781 Z M 418.054688 69.929688 C 419.515625 71.542969 419.128906 73.769531 417.363281 73.769531 C 416.136719 73.769531 413.832031 70.925781 413.832031 69.390625 C 413.832031 67.851562 416.519531 68.238281 418.054688 69.929688 Z M 292.140625 131.789062 L 292.140625 144.082031 L 285.84375 144.3125 L 279.472656 144.542969 L 277.9375 142.007812 C 277.015625 140.625 276.167969 138.550781 275.863281 137.320312 C 275.480469 135.246094 273.867188 134.554688 272.945312 136.015625 C 272.714844 136.476562 270.796875 136.78125 268.800781 136.78125 C 264.5 136.78125 263.886719 137.167969 264.960938 139.242188 C 265.652344 140.472656 266.417969 140.703125 269.71875 140.472656 C 273.558594 140.242188 273.710938 140.316406 273.710938 142.160156 C 273.710938 143.929688 273.40625 144.082031 269.183594 144.3125 C 264.117188 144.542969 262.425781 143.621094 260.660156 139.320312 C 259.664062 137.011719 259.738281 136.398438 261.042969 133.476562 C 262.503906 130.25 264.652344 128.253906 267.570312 127.332031 C 269.414062 126.714844 273.097656 128.945312 274.402344 131.480469 C 275.402344 133.554688 277.167969 134.324219 277.167969 132.632812 C 277.167969 132.019531 278.089844 130.558594 279.316406 129.484375 C 281.082031 127.714844 281.851562 127.484375 284.691406 127.867188 L 287.992188 128.328125 L 287.457031 124.410156 C 286.917969 120.183594 287.6875 118.953125 290.605469 119.261719 C 292.0625 119.492188 292.140625 120.109375 292.140625 131.789062 Z M 185.726562 121.875 C 190.253906 122.796875 192.328125 129.097656 189.410156 133.015625 C 188.488281 134.246094 184.957031 136.320312 182.5 137.089844 C 181.425781 137.398438 181.195312 138.242188 181.347656 140.777344 C 181.578125 144.082031 181.578125 144.082031 178.890625 144.082031 L 176.203125 144.082031 L 176.203125 133.476562 C 176.203125 121.796875 176.359375 121.492188 180.886719 121.414062 C 182.195312 121.414062 184.421875 121.644531 185.726562 121.875 Z M 314.25 123.796875 C 315.710938 125.640625 315.941406 127.714844 314.789062 129.867188 C 314.25 130.867188 314.40625 131.710938 315.558594 133.171875 C 317.859375 136.015625 317.554688 140.242188 315.019531 142.621094 C 313.175781 144.3125 312.410156 144.542969 307.957031 144.3125 L 302.886719 144.082031 L 302.65625 133.785156 C 302.425781 121.414062 302.582031 121.03125 308.648438 121.644531 C 311.71875 121.953125 313.253906 122.566406 314.25 123.796875 Z M 352.179688 121.875 C 353.253906 122.183594 354.023438 123.179688 354.328125 124.566406 C 354.636719 125.792969 355.175781 126.945312 355.558594 127.175781 C 355.941406 127.484375 356.25 128.175781 356.25 128.867188 C 356.25 130.097656 357.707031 133.710938 360.242188 138.78125 C 361.164062 140.546875 361.625 142.546875 361.394531 143.238281 C 360.546875 145.464844 358.246094 144.3125 356.710938 140.855469 C 355.328125 137.933594 354.945312 137.628906 351.796875 137.398438 C 349.953125 137.242188 348.1875 137.320312 347.957031 137.550781 C 347.34375 137.933594 345.882812 141.007812 345.191406 143.160156 C 344.960938 144.007812 343.964844 144.46875 342.503906 144.46875 C 339.820312 144.46875 338.820312 143.316406 340.125 141.777344 C 341.355469 140.316406 343.964844 135.09375 343.964844 134.09375 C 343.964844 133.710938 344.425781 132.402344 345.039062 131.328125 C 345.578125 130.25 346.269531 128.40625 346.574219 127.253906 C 347.1875 124.871094 349.183594 121.414062 350.03125 121.414062 C 350.261719 121.414062 351.257812 121.644531 352.179688 121.875 Z M 462.046875 122.105469 C 462.664062 122.488281 462.96875 123.410156 462.816406 124.179688 C 462.507812 126.101562 457.824219 126.714844 457.136719 124.949219 C 456.058594 122.105469 459.207031 120.261719 462.046875 122.105469 Z M 384.273438 125.792969 C 384.578125 127.40625 385.195312 129.175781 385.578125 129.714844 C 386.191406 130.40625 386.039062 131.019531 385.117188 132.019531 C 384.347656 132.941406 383.890625 134.785156 383.890625 137.011719 C 383.890625 139.855469 384.195312 140.625 385.5 141.007812 C 386.421875 141.316406 386.960938 142.085938 386.804688 142.777344 C 386.5 144.3125 381.816406 145.003906 380.511719 143.699219 C 380.050781 143.238281 379.511719 140.394531 379.28125 137.320312 C 378.976562 133.09375 378.589844 131.789062 377.746094 131.789062 C 376.824219 131.789062 376.519531 133.015625 376.363281 137.550781 C 376.210938 140.933594 375.75 143.546875 375.214844 143.851562 C 374.675781 144.160156 372.140625 144.46875 369.53125 144.46875 C 362.851562 144.46875 362.3125 143.699219 362.542969 135.324219 C 362.773438 129.328125 362.929688 128.714844 364.3125 128.714844 C 365.691406 128.714844 365.847656 129.328125 366.078125 134.632812 L 366.308594 140.625 L 368.609375 140.625 C 371.296875 140.625 372.371094 138.550781 371.835938 134.707031 C 371.375 131.632812 372.140625 128.328125 373.292969 128.328125 C 373.753906 128.328125 374.753906 128.867188 375.519531 129.558594 C 377.363281 131.25 378.4375 130.328125 378.976562 126.714844 C 379.359375 124.488281 379.972656 123.410156 381.125 122.949219 C 383.273438 122.183594 383.660156 122.488281 384.273438 125.792969 Z M 452.988281 124.640625 C 452.988281 125.640625 453.527344 127.40625 454.21875 128.714844 C 455.292969 130.789062 455.292969 131.097656 454.21875 131.863281 C 452.296875 133.246094 452.605469 139.625 454.679688 141.316406 C 456.75 143.085938 455.90625 144.46875 452.683594 144.46875 C 449.148438 144.46875 448.382812 143.316406 448.382812 137.550781 C 448.382812 134.785156 448.074219 132.171875 447.613281 131.710938 C 446.921875 131.019531 447.078125 130.25 448.84375 123.871094 C 448.996094 123.410156 449.996094 122.949219 451.070312 122.949219 C 452.527344 122.949219 452.988281 123.335938 452.988281 124.640625 Z M 202.15625 128.253906 C 205.226562 130.25 206.457031 132.324219 206.992188 136.167969 C 207.375 139.089844 207.144531 139.855469 205.378906 142.007812 C 203.539062 144.238281 202.921875 144.46875 199.316406 144.46875 C 195.09375 144.46875 193.789062 143.621094 191.332031 139.242188 C 189.871094 136.550781 192.097656 131.097656 195.707031 128.636719 C 199.007812 126.410156 199.390625 126.410156 202.15625 128.253906 Z M 245.152344 128.714844 C 247.300781 130.175781 247.992188 131.25 247.992188 132.785156 C 247.992188 135.859375 246.6875 136.78125 242.082031 136.78125 C 239.164062 136.78125 238.011719 137.089844 238.011719 137.859375 C 238.011719 139.78125 240.160156 140.777344 243.921875 140.472656 C 246.992188 140.316406 247.609375 140.472656 247.839844 141.699219 C 248.222656 143.699219 246.6875 144.46875 241.773438 144.46875 C 236.089844 144.46875 234.171875 142.46875 234.171875 136.550781 C 234.171875 132.863281 234.480469 132.171875 236.707031 130.097656 C 238.933594 128.023438 240.542969 127.023438 241.851562 126.871094 C 242.082031 126.792969 243.539062 127.636719 245.152344 128.714844 Z M 399.246094 128.484375 C 404.160156 131.328125 405.234375 138.550781 401.394531 142.699219 C 398.9375 145.3125 392.796875 145.234375 390.339844 142.546875 C 386.347656 138.242188 386.960938 132.554688 391.71875 129.097656 C 393.484375 127.792969 395.175781 126.792969 395.558594 126.792969 C 395.941406 126.792969 397.632812 127.5625 399.246094 128.484375 Z M 416.136719 128.40625 C 416.902344 129.558594 419.667969 129.40625 421.664062 128.023438 C 423.660156 126.714844 423.8125 126.714844 426.039062 128.023438 C 429.1875 129.867188 430.109375 132.480469 429.800781 138.78125 C 429.570312 143.929688 429.496094 144.082031 427.5 144.3125 C 426.117188 144.46875 425.347656 144.160156 425.273438 143.546875 C 425.195312 143.007812 425.117188 140.316406 425.117188 137.550781 C 424.964844 133.09375 424.8125 132.554688 423.351562 132.324219 C 420.820312 131.941406 419.589844 134.246094 419.589844 139.394531 C 419.589844 143.851562 419.515625 144.082031 417.671875 144.082031 C 415.828125 144.082031 415.75 143.929688 415.75 138.398438 C 415.75 132.324219 415.289062 131.632812 411.914062 132.480469 C 410.222656 132.941406 410.070312 133.324219 409.839844 138.550781 C 409.609375 143.621094 409.457031 144.082031 407.84375 144.3125 C 406.078125 144.542969 406.078125 144.542969 406.308594 137.011719 C 406.539062 129.636719 406.613281 129.484375 408.457031 129.253906 C 409.457031 129.097656 410.992188 128.484375 411.757812 127.945312 C 413.140625 126.945312 415.289062 127.175781 416.136719 128.40625 Z M 442.085938 128.945312 C 443.007812 129.558594 443.929688 130.789062 444.082031 131.710938 C 444.542969 133.710938 445.3125 143.699219 445.082031 143.777344 C 443.777344 144.238281 433.949219 144.3125 433.179688 143.851562 C 432.644531 143.46875 432.027344 142.007812 431.796875 140.546875 C 431.183594 136.9375 433.332031 134.324219 437.097656 134.09375 C 441.164062 133.863281 440.933594 132.632812 436.867188 132.324219 C 432.71875 132.019531 431.644531 131.171875 433.101562 129.40625 C 435.328125 126.714844 438.402344 126.484375 442.085938 128.945312 Z M 474.949219 128.40625 C 478.324219 130.480469 479.09375 132.019531 479.09375 136.628906 C 479.09375 142.316406 477.097656 144.46875 471.800781 144.46875 C 468.191406 144.46875 467.5 144.238281 465.734375 142.085938 C 462.277344 137.933594 463.199219 131.710938 467.808594 128.558594 C 470.953125 126.484375 471.800781 126.410156 474.949219 128.40625 Z M 493.296875 128.714844 C 495.523438 130.558594 495.601562 130.789062 495.601562 137.320312 C 495.601562 144.007812 495.601562 144.082031 493.679688 144.082031 C 491.839844 144.082031 491.761719 143.929688 491.53125 138.089844 C 491.300781 132.554688 491.222656 132.171875 489.613281 132.171875 C 486.617188 132.171875 486.082031 133.171875 485.851562 138.703125 C 485.621094 143.851562 485.542969 144.082031 483.699219 144.082031 C 482.242188 144.082031 481.78125 143.699219 481.855469 142.316406 C 481.855469 141.394531 481.933594 138.011719 482.011719 134.863281 L 482.164062 129.097656 L 484.390625 129.097656 C 485.621094 129.097656 487 128.558594 487.539062 127.945312 C 488.921875 126.332031 490.609375 126.5625 493.296875 128.714844 Z M 259.507812 129.789062 C 259.507812 131.632812 259.125 132.019531 257.128906 132.480469 C 254.824219 132.941406 254.824219 132.941406 254.902344 137.703125 C 255.054688 144.621094 255.132812 144.46875 252.597656 144.46875 L 250.296875 144.46875 L 250.296875 129.097656 L 252.523438 129.097656 C 253.828125 129.097656 255.054688 128.714844 255.285156 128.328125 C 255.515625 127.867188 256.589844 127.5625 257.667969 127.5625 C 259.203125 127.5625 259.507812 127.945312 259.507812 129.789062 Z M 212.445312 132.554688 C 213.136719 134.632812 213.75 136.859375 213.902344 137.320312 C 214.515625 139.472656 215.667969 138.089844 216.972656 133.710938 C 217.894531 130.710938 218.816406 128.945312 219.738281 128.636719 C 221.425781 128.097656 223.421875 129.558594 223.421875 131.328125 C 223.421875 132.785156 225.1875 138.089844 225.957031 138.78125 C 226.265625 139.089844 226.726562 138.242188 226.957031 136.859375 C 227.261719 135.554688 227.800781 134.246094 228.105469 134.015625 C 228.492188 133.785156 228.796875 132.785156 228.796875 131.863281 C 228.796875 129.636719 230.488281 128.097656 232.175781 128.789062 C 232.867188 129.023438 233.40625 129.484375 233.40625 129.789062 C 233.40625 130.480469 231.5625 135.476562 230.949219 136.398438 C 230.71875 136.78125 230.101562 138.628906 229.566406 140.472656 C 228.644531 144.007812 227.492188 144.929688 224.652344 144.160156 C 223.269531 143.851562 222.808594 143.085938 222.425781 140.546875 C 222.195312 138.859375 221.8125 137.242188 221.582031 137.011719 C 220.503906 135.9375 218.816406 137.78125 218.355469 140.625 C 217.972656 143.085938 217.433594 143.851562 215.976562 144.160156 C 213.75 144.773438 211.140625 142.699219 211.140625 140.316406 C 211.140625 139.394531 210.679688 137.78125 210.0625 136.628906 C 208.605469 133.941406 207.835938 130.097656 208.453125 129.097656 C 209.601562 127.253906 211.371094 128.867188 212.445312 132.554688 Z M 461.433594 136.015625 C 461.894531 143.007812 461.359375 144.699219 458.824219 144.3125 C 457.75 144.160156 457.210938 143.546875 457.289062 142.316406 C 457.289062 141.394531 457.363281 138.011719 457.441406 134.785156 C 457.59375 129.253906 457.671875 129.023438 459.363281 129.253906 C 460.898438 129.484375 461.050781 129.945312 461.433594 136.015625 Z M 502.511719 140.316406 C 503.585938 141.007812 504.429688 142.238281 504.429688 143.007812 C 504.429688 144.160156 503.890625 144.46875 501.359375 144.46875 C 498.671875 144.46875 498.289062 144.238281 498.289062 142.699219 C 498.289062 141.238281 499.515625 139.089844 500.359375 139.089844 C 500.515625 139.089844 501.511719 139.625 502.511719 140.316406 Z M 502.511719 140.316406 "/>
<path style=" stroke:none;fill-rule:nonzero;fill:rgb(100%,100%,100%);fill-opacity:1;" d="M 504.8125 37.421875 C 501.820312 37.882812 497.980469 40.882812 496.367188 43.953125 C 494.757812 47.027344 492.914062 56.019531 492.914062 60.628906 C 492.914062 63.78125 494.21875 73.234375 494.910156 74.921875 C 496.597656 79.148438 502.355469 83.683594 505.964844 83.761719 C 509.191406 83.761719 514.796875 80.917969 517.25 77.921875 L 519.785156 74.691406 L 519.632812 57.632812 L 519.402344 40.496094 L 517.480469 39.113281 C 515.484375 37.730469 508.804688 36.808594 504.8125 37.421875 Z M 509.882812 50.71875 C 510.800781 54.097656 510.648438 67.085938 509.574219 69.160156 C 508.269531 71.847656 505.582031 72.078125 504.046875 69.621094 C 502.125 66.699219 502.664062 53.484375 504.8125 50.5625 C 506.734375 47.949219 509.113281 48.027344 509.882812 50.71875 Z M 509.882812 50.71875 "/>
<path style=" stroke:none;fill-rule:nonzero;fill:rgb(100%,100%,100%);fill-opacity:1;" d="M 643.015625 60.707031 C 632.035156 62.089844 625.96875 68.238281 627.734375 76.304688 C 627.964844 77.691406 628.578125 79.226562 629.039062 79.765625 C 632.339844 83.914062 644.472656 85.296875 648.773438 82.070312 L 651.074219 80.378906 L 651.074219 70.160156 C 651.074219 58.476562 651.996094 59.632812 643.015625 60.707031 Z M 643.015625 60.707031 "/>
<path style=" stroke:none;fill-rule:nonzero;fill:rgb(100%,100%,100%);fill-opacity:1;" d="M 265.652344 132.941406 C 264.421875 133.710938 264.578125 133.785156 267.570312 133.941406 C 268.644531 134.015625 269.566406 133.710938 269.71875 133.246094 C 269.949219 132.25 267.03125 132.019531 265.652344 132.941406 Z M 265.652344 132.941406 "/>
<path style=" stroke:none;fill-rule:nonzero;fill:rgb(100%,100%,100%);fill-opacity:1;" d="M 281.160156 133.09375 C 280.164062 134.09375 280.007812 136.167969 280.699219 138.859375 C 281.390625 141.546875 286.074219 141.394531 287.300781 138.703125 C 288.683594 135.628906 287.300781 132.632812 284.460938 132.324219 C 283.15625 132.171875 281.699219 132.554688 281.160156 133.09375 Z M 281.160156 133.09375 "/>
<path style=" stroke:none;fill-rule:nonzero;fill:rgb(100%,100%,100%);fill-opacity:1;" d="M 181.734375 125.71875 C 180.886719 126.5625 181.117188 132.785156 182.039062 133.324219 C 182.425781 133.632812 183.5 133.246094 184.34375 132.480469 C 186.492188 130.558594 186.109375 125.71875 183.882812 125.410156 C 182.960938 125.257812 182.039062 125.410156 181.734375 125.71875 Z M 181.734375 125.71875 "/>
<path style=" stroke:none;fill-rule:nonzero;fill:rgb(100%,100%,100%);fill-opacity:1;" d="M 307.109375 126.410156 C 306.34375 127.332031 306.265625 128.023438 306.804688 128.945312 C 307.878906 130.636719 308.800781 130.789062 310.566406 129.40625 C 311.71875 128.558594 311.871094 128.023438 311.257812 126.945312 C 310.105469 125.179688 308.339844 124.949219 307.109375 126.410156 Z M 307.109375 126.410156 "/>
<path style=" stroke:none;fill-rule:nonzero;fill:rgb(100%,100%,100%);fill-opacity:1;" d="M 307.648438 134.246094 C 306.574219 135.324219 307.109375 140.472656 308.339844 140.933594 C 310.488281 141.777344 313.253906 139.394531 313.253906 136.78125 C 313.253906 134.785156 309.03125 132.863281 307.648438 134.246094 Z M 307.648438 134.246094 "/>
<path style=" stroke:none;fill-rule:nonzero;fill:rgb(100%,100%,100%);fill-opacity:1;" d="M 349.414062 130.636719 C 348.417969 133.476562 349.261719 134.632812 351.949219 134.324219 C 354.175781 134.015625 354.253906 132.632812 352.179688 130.175781 L 350.335938 128.097656 Z M 349.414062 130.636719 "/>
<path style=" stroke:none;fill-rule:nonzero;fill:rgb(100%,100%,100%);fill-opacity:1;" d="M 195.707031 134.246094 C 194.476562 137.472656 195.785156 140.164062 198.777344 140.472656 C 201.542969 140.777344 203.382812 139.089844 203.460938 136.320312 C 203.460938 132.324219 197.164062 130.558594 195.707031 134.246094 Z M 195.707031 134.246094 "/>
<path style=" stroke:none;fill-rule:nonzero;fill:rgb(100%,100%,100%);fill-opacity:1;" d="M 239.546875 133.324219 C 239.546875 134.554688 240.238281 134.785156 242.15625 134.015625 C 243.691406 133.402344 243 132.171875 241.003906 132.171875 C 240.238281 132.171875 239.546875 132.710938 239.546875 133.324219 Z M 239.546875 133.324219 "/>
<path style=" stroke:none;fill-rule:nonzero;fill:rgb(100%,100%,100%);fill-opacity:1;" d="M 392.871094 133.554688 C 390.183594 136.476562 392.105469 140.625 396.019531 140.625 C 398.554688 140.625 400.011719 138.933594 400.011719 136.089844 C 400.011719 132.554688 395.253906 130.867188 392.871094 133.554688 Z M 392.871094 133.554688 "/>
<path style=" stroke:none;fill-rule:nonzero;fill:rgb(100%,100%,100%);fill-opacity:1;" d="M 436.328125 137.320312 C 434.945312 137.859375 435.101562 140.394531 436.480469 140.933594 C 437.097656 141.164062 438.171875 141.164062 438.785156 140.933594 C 440.242188 140.394531 441.625 137.933594 440.933594 137.242188 C 440.398438 136.707031 437.710938 136.707031 436.328125 137.320312 Z M 436.328125 137.320312 "/>
<path style=" stroke:none;fill-rule:nonzero;fill:rgb(100%,100%,100%);fill-opacity:1;" d="M 468.496094 133.09375 C 467.269531 134.324219 467.347656 138.703125 468.574219 139.625 C 470.800781 141.394531 472.261719 141.394531 474.179688 139.472656 C 475.636719 138.011719 475.945312 137.089844 475.5625 135.476562 C 475.253906 134.246094 474.640625 133.09375 474.179688 132.785156 C 472.875 131.863281 469.496094 132.09375 468.496094 133.09375 Z M 468.496094 133.09375 "/>
<path style=" stroke:none;fill-rule:nonzero;fill:rgb(100%,100%,100%);fill-opacity:1;" d="M 29.789062 9.914062 C 23.800781 11.835938 20.652344 13.984375 15.738281 19.441406 C 7.292969 28.738281 7.0625 38.34375 14.894531 50.179688 C 18.121094 55.019531 17.964844 56.171875 13.589844 59.476562 C 9.597656 62.550781 6.140625 69.007812 6.066406 73.539062 C 5.910156 78.765625 7.832031 82.378906 13.820312 88.449219 C 21.265625 95.976562 25.105469 97.207031 41.074219 97.207031 C 55.511719 97.207031 57.121094 96.671875 65.414062 89.675781 C 68.179688 87.21875 71.171875 85.296875 71.941406 85.296875 C 72.707031 85.296875 75.320312 86.988281 77.699219 89.0625 C 83.304688 93.902344 87.757812 95.976562 94.28125 96.976562 C 100.734375 97.898438 108.332031 96.902344 113.402344 94.441406 C 115.242188 93.519531 118.699219 90.90625 120.925781 88.601562 C 123.84375 85.605469 125.300781 84.605469 126.070312 85.066406 C 127.605469 85.988281 136.203125 92.519531 136.664062 93.058594 C 137.664062 94.289062 142.191406 96.054688 146.644531 96.824219 C 152.019531 97.824219 156.78125 97.4375 163.691406 95.515625 C 170.832031 93.597656 180.429688 83.761719 180.429688 78.457031 C 180.429688 77.535156 178.738281 75.539062 176.128906 73.464844 C 171.292969 69.46875 168.910156 69.082031 162.308594 71.082031 C 152.328125 74.078125 148.179688 70.621094 148.179688 59.171875 C 148.179688 53.484375 149.179688 50.640625 151.941406 48.105469 C 154.09375 46.105469 156.550781 46.953125 161.308594 51.179688 C 166.761719 56.019531 169.601562 57.324219 172.671875 56.25 C 173.976562 55.789062 175.589844 55.558594 176.203125 55.789062 C 177.433594 56.328125 177.355469 55.867188 180.121094 67.929688 C 182.117188 76.84375 182.347656 77.226562 186.570312 82.148438 C 197.703125 95.054688 205.917969 99.511719 213.210938 96.746094 C 219.738281 94.289062 230.488281 84.144531 234.09375 77.074219 C 237.320312 70.621094 240.3125 58.402344 240.3125 51.410156 C 240.3125 49.949219 240.773438 48.105469 241.3125 47.257812 C 242.3125 45.953125 242.464844 46.03125 243.230469 48.410156 C 243.769531 49.871094 244.152344 55.558594 244.152344 61.550781 C 244.152344 72.695312 243.15625 77.613281 240.238281 81.378906 C 238.011719 84.144531 238.394531 86.910156 241.621094 90.675781 C 246.074219 95.824219 248.992188 96.824219 260.277344 96.824219 C 272.175781 96.824219 274.632812 96.132812 279.085938 91.753906 C 283.769531 86.988281 283.695312 85.375 278.242188 78.6875 C 275.863281 75.84375 273.636719 72.617188 273.253906 71.617188 C 272.175781 68.777344 272.40625 59.476562 273.558594 58.476562 C 274.25 58.015625 276.398438 57.863281 279.546875 58.09375 C 284 58.476562 284.691406 58.402344 287.148438 56.558594 C 295.746094 50.257812 295.441406 50.410156 297.4375 51.714844 C 300.585938 53.789062 300.660156 55.710938 297.667969 60.554688 C 293.0625 68.085938 292.523438 69.621094 292.523438 74.539062 C 292.523438 80.300781 294.289062 83.992188 299.742188 89.753906 C 307.1875 97.667969 311.410156 98.667969 333.367188 97.667969 C 344.960938 97.132812 349.109375 96.671875 351.257812 95.671875 C 354.484375 94.058594 359.320312 88.523438 359.320312 86.296875 C 359.320312 85.449219 358.320312 82.453125 357.015625 79.6875 C 354.789062 74.691406 354.714844 74.308594 354.714844 62.011719 C 354.714844 48.257812 354.023438 42.957031 351.566406 37.882812 C 349.570312 33.65625 343.425781 27.664062 338.742188 25.28125 C 335.519531 23.589844 334.214844 23.4375 325.152344 23.4375 C 313.101562 23.4375 309.335938 24.511719 302.425781 30.046875 C 299.816406 32.121094 297.359375 33.8125 296.898438 33.8125 C 296.515625 33.8125 293.980469 31.738281 291.292969 29.277344 C 284.921875 23.285156 282.617188 22.746094 264.347656 23.207031 L 250.601562 23.515625 L 246.226562 25.972656 L 241.925781 28.433594 L 237.628906 26.128906 C 233.710938 24.050781 232.558594 23.820312 226.1875 23.820312 C 220.429688 23.820312 218.507812 24.128906 215.285156 25.664062 C 213.136719 26.664062 211.0625 27.894531 210.832031 28.355469 C 209.988281 29.738281 208.375 29.355469 204.84375 27.050781 C 199.007812 23.128906 192.789062 22.667969 179.890625 25.050781 C 178.046875 25.433594 176.664062 25.050781 174.59375 23.746094 C 171.90625 22.132812 170.984375 22.054688 159.621094 22.132812 C 143.265625 22.207031 140.351562 23.054688 131.136719 30.507812 C 125.222656 35.195312 124.996094 35.195312 119.464844 29.816406 C 115.242188 25.742188 111.789062 24.050781 105.644531 23.054688 C 99.425781 22.054688 91.980469 23.054688 86.375 25.664062 C 80.078125 28.585938 72.402344 36.269531 69.253906 42.878906 C 66.335938 48.871094 65.183594 49.949219 63.339844 48.410156 C 61.5 46.875 61.960938 45.183594 65.335938 41.113281 C 67.027344 39.035156 68.945312 36.425781 69.5625 35.195312 C 70.941406 32.503906 70.941406 27.585938 69.5625 24.207031 C 68.179688 21.054688 62.191406 14.445312 58.660156 12.296875 C 52.4375 8.375 38.234375 7.222656 29.789062 9.914062 Z M 51.058594 18.289062 C 57.046875 20.363281 60.5 22.746094 61.960938 25.664062 C 63.035156 27.972656 63.113281 28.816406 62.265625 31.507812 C 61.269531 34.964844 59.808594 36.730469 56.277344 38.804688 C 54.128906 40.113281 53.898438 40.113281 51.980469 38.804688 C 49.675781 37.269531 49.367188 35.964844 51.058594 34.578125 C 51.75 34.042969 52.207031 32.351562 52.207031 30.738281 C 52.207031 28.433594 51.75 27.355469 49.90625 25.898438 C 46.144531 22.667969 36.085938 22.207031 31.785156 24.972656 C 28.792969 26.894531 26.640625 31.277344 27.257812 34.273438 C 27.871094 37.808594 33.015625 43.03125 38.464844 45.722656 C 40.769531 46.796875 43.148438 48.027344 43.761719 48.410156 C 44.378906 48.796875 45.453125 49.257812 46.066406 49.566406 C 46.679688 49.796875 47.910156 50.410156 48.753906 50.949219 C 49.597656 51.484375 52.054688 52.867188 54.128906 54.097656 C 62.421875 58.863281 66.027344 63.859375 66.027344 70.542969 C 66.027344 78.226562 62.496094 83.300781 54.589844 87.066406 C 51.519531 88.523438 49.753906 88.753906 40.691406 88.753906 C 30.402344 88.753906 27.640625 88.21875 23.035156 85.296875 C 22.417969 84.835938 21.191406 84.222656 20.347656 83.835938 C 18.042969 82.839844 15.664062 79.917969 14.511719 76.691406 C 13.742188 74.308594 13.742188 73.308594 14.585938 70.695312 C 16.8125 64.011719 26.871094 59.324219 27.488281 64.703125 C 27.640625 65.855469 27.179688 67.621094 26.566406 68.546875 C 22.265625 74.691406 30.789062 83.683594 40.921875 83.761719 C 45.683594 83.761719 50.980469 81.839844 53.054688 79.378906 C 53.667969 78.613281 54.664062 76.613281 55.203125 74.847656 C 56.046875 72.234375 56.046875 71.386719 54.972656 69.082031 C 53.054688 64.78125 50.75 62.78125 44.148438 59.707031 C 42.457031 58.941406 40.539062 57.941406 39.925781 57.632812 C 39.308594 57.25 37.238281 56.171875 35.316406 55.25 C 31.402344 53.253906 24.644531 48.488281 22.1875 45.875 C 17.351562 40.726562 16.125 32.351562 19.5 27.050781 C 21.804688 23.4375 23.339844 22.054688 27.640625 19.980469 C 29.558594 19.058594 31.632812 18.058594 32.246094 17.675781 C 34.394531 16.445312 46.910156 16.828125 51.058594 18.289062 Z M 172.980469 29.355469 C 173.210938 29.890625 173.210938 32.964844 172.980469 36.117188 C 172.75 39.265625 172.980469 43.339844 173.363281 45.109375 C 174.207031 48.949219 173.289062 50.179688 169.910156 49.796875 C 168.144531 49.566406 167.683594 49.101562 167.222656 46.414062 C 165.148438 36.195312 151.328125 32.582031 144.34375 40.496094 C 141.195312 43.953125 140.042969 46.875 138.96875 53.328125 C 138.277344 58.171875 138.277344 60.628906 139.042969 65.625 C 140.195312 72.773438 142.191406 76.613281 146.414062 79.535156 C 151.558594 82.992188 163 81.761719 168.296875 77.074219 C 168.988281 76.460938 170.523438 76.074219 171.75 76.230469 C 173.441406 76.382812 173.976562 76.921875 174.132812 78.457031 C 174.363281 80.148438 173.671875 80.917969 170.214844 83.222656 C 167.988281 84.757812 165.148438 86.21875 164.074219 86.449219 C 162.921875 86.757812 161.769531 87.296875 161.539062 87.679688 C 161.308594 88.0625 157.777344 88.371094 153.554688 88.371094 C 146.875 88.371094 145.570312 88.140625 142.039062 86.296875 C 137.894531 84.144531 130.523438 76.613281 130.523438 74.539062 C 130.523438 73.925781 130.0625 72.695312 129.449219 71.847656 C 128.832031 71.003906 128.140625 67.390625 127.910156 63.78125 C 127.375 56.863281 128.066406 50.792969 129.984375 45.722656 C 131.675781 41.1875 137.433594 35.117188 142.421875 32.582031 C 146.261719 30.660156 147.566406 30.429688 153.554688 30.429688 C 158.46875 30.507812 160.695312 30.816406 162.078125 31.738281 C 164.6875 33.582031 166.070312 33.351562 167.988281 30.738281 C 169.753906 28.355469 172.367188 27.664062 172.980469 29.355469 Z M 108.027344 32.199219 C 112.785156 33.8125 116.011719 36.347656 117.777344 39.726562 C 119.390625 42.957031 119.3125 45.953125 117.46875 50.101562 C 115.550781 54.484375 112.324219 57.632812 107.640625 59.863281 C 105.644531 60.785156 103.417969 61.9375 102.574219 62.320312 C 101.808594 62.78125 97.429688 63.320312 92.824219 63.550781 C 84.839844 64.011719 84.457031 64.089844 84.457031 65.703125 C 84.457031 67.316406 85.605469 70.234375 87.910156 74.539062 C 88.449219 75.613281 90.367188 77.613281 92.132812 78.917969 C 95.128906 81.300781 95.664062 81.453125 101.578125 81.453125 C 106.566406 81.453125 108.5625 81.070312 110.945312 79.839844 C 112.632812 78.917969 114.246094 77.84375 114.550781 77.382812 C 115.167969 76.382812 119.003906 78.152344 119.621094 79.765625 C 120.082031 81.148438 116.703125 83.992188 111.558594 86.449219 C 108.101562 88.140625 106.566406 88.371094 99.964844 88.371094 C 92.824219 88.371094 92.054688 88.21875 87.679688 85.835938 C 82.691406 83.222656 79.464844 79.6875 76.625 73.925781 C 75.089844 70.695312 74.859375 69.238281 74.933594 60.324219 C 74.933594 50.5625 75.011719 50.257812 77.46875 45.722656 C 80.386719 40.496094 83.765625 36.578125 87.144531 34.734375 C 94.742188 30.585938 101.117188 29.816406 108.027344 32.199219 Z M 331.066406 31.96875 C 337.4375 33.425781 340.664062 35.195312 343.195312 38.574219 C 345.117188 41.113281 345.117188 41.1875 345.269531 60.246094 C 345.347656 80.53125 345.808594 82.992188 348.878906 82.992188 C 352.5625 82.992188 353.945312 83.914062 353.945312 86.140625 C 353.945312 87.371094 353.5625 88.371094 353.023438 88.371094 C 352.488281 88.449219 342.890625 88.523438 331.679688 88.601562 L 311.332031 88.753906 L 307.339844 86.066406 C 305.113281 84.605469 303.273438 82.992188 303.273438 82.53125 C 303.273438 82.070312 302.734375 81.222656 302.121094 80.6875 C 301.277344 79.996094 300.96875 78.226562 300.96875 74.769531 C 300.96875 70.3125 301.199219 69.390625 303.425781 66.546875 C 306.804688 62.320312 308.261719 61.167969 313.636719 58.554688 C 318.472656 56.171875 325.921875 54.558594 331.910156 54.558594 L 335.519531 54.558594 L 335.519531 42.339844 L 332.679688 40.035156 C 329.992188 37.808594 329.375 37.652344 323.847656 37.652344 C 318.320312 37.652344 317.859375 37.808594 315.632812 40.035156 C 313.175781 42.417969 312.5625 45.109375 314.097656 46.644531 C 314.558594 47.105469 314.789062 48.257812 314.636719 49.257812 C 314.480469 50.792969 313.867188 51.101562 311.257812 51.332031 C 308.492188 51.5625 307.648438 51.179688 305.269531 48.949219 C 297.285156 41.417969 306.574219 32.734375 324.617188 30.816406 C 325.152344 30.816406 328.070312 31.277344 331.066406 31.96875 Z M 281.621094 32.351562 C 286.996094 33.65625 289.453125 36.269531 289.453125 40.804688 C 289.453125 44.183594 289.144531 44.800781 285.535156 48.410156 C 282.464844 51.484375 281.160156 52.253906 279.546875 52.101562 C 278.011719 51.945312 277.476562 51.410156 277.320312 49.71875 C 277.167969 48.488281 277.550781 46.953125 278.164062 46.261719 C 280.238281 43.878906 280.390625 41.878906 278.625 39.726562 C 277.167969 37.808594 276.628906 37.652344 271.410156 37.652344 C 263.039062 37.652344 263.347656 36.886719 263.347656 60.476562 C 263.347656 83.605469 262.964844 82.683594 272.945312 83.144531 C 276.324219 83.375 276.785156 83.605469 277.015625 85.21875 C 277.167969 86.21875 276.9375 87.371094 276.554688 87.757812 C 275.863281 88.449219 266.1875 88.601562 245.457031 88.371094 C 245.074219 88.371094 244.921875 87.21875 245.074219 85.910156 C 245.304688 83.683594 245.613281 83.375 248.144531 82.914062 C 253.597656 82.070312 253.445312 82.839844 253.214844 59.785156 C 252.984375 37.347656 253.058594 37.652344 248.53125 37.652344 C 247.070312 37.652344 246.226562 37.117188 245.765625 35.886719 C 244.460938 32.429688 245.304688 32.042969 253.671875 32.503906 C 257.972656 32.8125 262.808594 32.734375 264.5 32.351562 C 269.03125 31.351562 277.550781 31.351562 281.621094 32.351562 Z M 204.074219 34.808594 C 203.84375 37.039062 203.539062 37.269531 201.003906 37.5 C 196.550781 37.882812 196.242188 39.035156 196.859375 53.636719 C 197.320312 65.394531 197.472656 66.46875 199.621094 70.925781 C 202.003906 75.921875 206.992188 82.222656 208.605469 82.222656 C 209.679688 82.222656 215.746094 76 215.746094 74.921875 C 215.746094 74.460938 216.128906 73.695312 216.589844 73.234375 C 219.125 70.695312 220.199219 64.550781 220.503906 51.871094 C 220.734375 37.960938 220.660156 37.652344 216.28125 37.652344 C 214.132812 37.652344 212.445312 35.273438 213.210938 33.273438 C 213.597656 32.199219 237.011719 32.042969 237.703125 33.195312 C 237.933594 33.582031 237.933594 34.734375 237.703125 35.808594 C 237.320312 37.269531 236.707031 37.652344 234.941406 37.652344 C 231.945312 37.652344 231.101562 39.421875 231.101562 45.492188 C 231.101562 57.171875 229.335938 67.085938 225.804688 74.460938 C 223.960938 78.382812 215.746094 86.449219 210.371094 89.675781 C 208.296875 90.90625 208.222656 90.828125 203.382812 87.21875 C 198.011719 83.144531 193.710938 78.84375 192.636719 76.460938 C 192.25 75.613281 191.636719 74.386719 191.253906 73.769531 C 188.414062 69.082031 186.1875 56.789062 186.417969 47.414062 C 186.570312 40.113281 185.726562 37.652344 183.191406 37.652344 C 180.886719 37.652344 178.585938 34.734375 179.660156 33.425781 C 180.199219 32.734375 184.191406 32.503906 192.40625 32.429688 L 204.304688 32.429688 Z M 210.371094 45.722656 C 211.371094 46.953125 211.140625 61.089844 210.0625 62.859375 C 207.53125 67.007812 204.304688 51.714844 206.6875 46.492188 C 207.683594 44.339844 208.988281 44.03125 210.371094 45.722656 Z M 118.46875 68.007812 C 119.003906 69.3125 118.699219 69.542969 115.011719 70.234375 C 111.941406 70.773438 110.636719 69.773438 112.09375 68.007812 C 113.324219 66.46875 117.929688 66.46875 118.46875 68.007812 Z M 41 70.464844 C 41.304688 71.15625 41.152344 72.078125 40.769531 72.464844 C 39.617188 73.617188 37.621094 72.464844 37.621094 70.695312 C 37.621094 68.777344 40.308594 68.546875 41 70.464844 Z M 41 70.464844 "/>
<path style=" stroke:none;fill-rule:nonzero;fill:rgb(100%,100%,100%);fill-opacity:1;" d="M 96.125 37.652344 C 93.132812 38.34375 90.980469 40.113281 88.753906 43.800781 C 86.527344 47.414062 84.226562 54.558594 84.609375 56.941406 C 84.839844 58.632812 85.148438 58.785156 88.679688 58.554688 C 90.828125 58.402344 94.742188 57.554688 97.429688 56.710938 C 105.339844 54.023438 108.71875 49.335938 107.640625 42.339844 C 107.105469 38.574219 101.578125 36.269531 96.125 37.652344 Z M 96.125 37.652344 "/>
<path style=" stroke:none;fill-rule:nonzero;fill:rgb(100%,100%,100%);fill-opacity:1;" d="M 327.609375 60.707031 C 324.769531 61.015625 322.007812 61.628906 321.546875 62.089844 C 321.007812 62.628906 320.085938 63.011719 319.394531 63.011719 C 317.324219 63.011719 312.714844 68.238281 312.101562 71.234375 C 311.5625 74.15625 312.179688 78.226562 313.484375 79.765625 C 315.480469 82.300781 320.085938 83.761719 325.769531 83.761719 C 330.605469 83.761719 331.757812 83.453125 333.445312 81.992188 C 335.519531 80.300781 335.519531 80.148438 335.519531 70.082031 C 335.519531 60.859375 335.367188 59.9375 334.214844 60.015625 C 333.445312 60.09375 330.453125 60.398438 327.609375 60.707031 Z M 327.609375 60.707031 "/>
</g>
</svg>
